<svg viewBox="0 0 48 48" fill="none" xmlns="http://www.w3.org/2000/svg">
<path d="M0 24C0 10.7452 10.7452 0 24 0C37.2548 0 48 10.7452 48 24C48 37.2548 37.2548 48 24 48C10.7452 48 0 37.2548 0 24Z" />
<path d="M24 16L17 19L24 22L31 19L24 16Z" />
<path d="M19.6601 22.3159L16.803 23.5404C16.6192 23.6192 16.5 23.7999 16.5 23.9999C16.5 24.2 16.6192 24.3807 16.803 24.4595L23.803 27.4595C23.9288 27.5134 24.0712 27.5134 24.197 27.4595L31.197 24.4595C31.3808 24.3807 31.5 24.2 31.5 23.9999C31.5 23.7999 31.3808 23.6192 31.197 23.5404L28.3399 22.3159L27.0706 22.8599L29.7307 23.9999L24 26.456L18.2693 23.9999L20.9294 22.8599L19.6601 22.3159Z" fill="#7D869E"/>
<path d="M19.6601 27.3159L16.803 28.5404C16.6192 28.6192 16.5 28.7999 16.5 28.9999C16.5 29.2 16.6192 29.3807 16.803 29.4595L23.803 32.4595C23.9288 32.5134 24.0712 32.5134 24.197 32.4595L31.197 29.4595C31.3808 29.3807 31.5 29.2 31.5 28.9999C31.5 28.7999 31.3808 28.6192 31.197 28.5404L28.3399 27.3159L27.0706 27.8599L29.7307 28.9999L24 31.456L18.2693 28.9999L20.9294 27.8599L19.6601 27.3159Z" fill="#7D869E"/>
</svg>
