<svg viewBox="0 0 48 48" fill="none" xmlns="http://www.w3.org/2000/svg">
<path d="M0 24C0 10.7452 10.7452 0 24 0C37.2548 0 48 10.7452 48 24C48 37.2548 37.2548 48 24 48C10.7452 48 0 37.2548 0 24Z"/>
<rect x="25" y="26" width="2" height="2" rx="1"/>
<path d="M22 26H18"/>
<path d="M20 24L20 28"/>
<rect x="28" y="24" width="2" height="2" rx="1"/>
<path d="M26 20V20C26 19.5833 26 19.3749 25.9655 19.1914C25.8455 18.5546 25.4245 18.0153 24.8358 17.7445C24.6662 17.6665 24.464 17.616 24.0597 17.5149L24 17.5C23.5388 17.3847 23.3082 17.3271 23.1171 17.233C22.5686 16.9631 22.1737 16.4573 22.0449 15.8598C22 15.6515 22 15.4138 22 14.9384V14"/>
<path d="M15 26C15 23.4412 15 22.1618 15.6199 21.2804C15.7795 21.0535 15.9657 20.8504 16.1737 20.6763C16.9816 20 18.1544 20 20.5 20H27.5C29.8456 20 31.0184 20 31.8263 20.6763C32.0343 20.8504 32.2205 21.0535 32.3801 21.2804C33 22.1618 33 23.4412 33 26C33 28.5588 33 29.8382 32.3801 30.7196C32.2205 30.9465 32.0343 31.1496 31.8263 31.3237C31.0184 32 29.8456 32 27.5 32H20.5C18.1544 32 16.9816 32 16.1737 31.3237C15.9657 31.1496 15.7795 30.9465 15.6199 30.7196C15 29.8382 15 28.5588 15 26Z"/>
</svg>
