<svg viewBox="0 0 48 48" fill="none" xmlns="http://www.w3.org/2000/svg">
<path d="M0 24C0 10.7452 10.7452 0 24 0C37.2548 0 48 10.7452 48 24C48 37.2548 37.2548 48 24 48C10.7452 48 0 37.2548 0 24Z"/>
<path d="M21.8517 18.5206C20.4092 17.5891 18.3668 17.8041 17.1964 19.3126L16.9105 19.6811C15.548 21.4371 15.7447 23.9414 17.3647 25.4631L23.7903 31.4994C23.8933 31.5961 23.954 31.6525 23.9995 31.6897C24.045 31.6525 24.1057 31.5961 24.2086 31.4994L30.6343 25.4631C32.2542 23.9414 32.451 21.4371 31.0885 19.6811L30.8026 19.3126C29.5598 17.7107 27.3337 17.567 25.8859 18.7073L25.2671 17.9217C27.1238 16.4595 29.9886 16.6321 31.5927 18.6996L31.8786 19.0681C33.5572 21.2317 33.3149 24.3171 31.319 26.192L24.8933 32.2282L24.8798 32.2409C24.7809 32.3338 24.6822 32.4266 24.5908 32.497C24.4885 32.5758 24.3566 32.6582 24.1848 32.6919L24.0987 32.2535L24.1848 32.6919C24.0624 32.7159 23.9366 32.7159 23.8142 32.6919L23.9105 32.2013L23.8142 32.6919C23.6424 32.6582 23.5105 32.5758 23.4082 32.497C23.3168 32.4266 23.2181 32.3338 23.1192 32.2409L23.1057 32.2282L16.68 26.192C14.6841 24.3171 14.4417 21.2317 16.1204 19.0681L16.4063 18.6996C18.0558 16.5736 21.0385 16.4508 22.8881 18.0507L23.2495 18.3634L22.9535 18.7386L22.103 19.8166C21.7657 20.2441 21.5465 20.5239 21.4145 20.7499C21.2897 20.9636 21.2897 21.053 21.2998 21.1086C21.31 21.1641 21.3418 21.2477 21.5342 21.4033C21.7377 21.5679 22.0419 21.7517 22.5089 22.0319L23.3824 22.556L23.4114 22.5734C23.8088 22.8118 24.1501 23.0166 24.3997 23.217C24.6668 23.4313 24.8915 23.6885 24.9734 24.0527C25.0553 24.417 24.9623 24.7456 24.8127 25.0536C24.6729 25.3416 24.4521 25.6728 24.1951 26.0583L24.1763 26.0865L23.4913 27.1139L22.6593 26.5592L23.3442 25.5318C23.6253 25.1101 23.8068 24.8359 23.9132 24.6168C24.0132 24.4108 24.0098 24.3257 23.9977 24.2721C23.9857 24.2186 23.9524 24.1402 23.7737 23.9968C23.5838 23.8443 23.3025 23.6742 22.8679 23.4135L21.9944 22.8894L21.964 22.8712C21.5359 22.6144 21.1701 22.3949 20.9055 22.1809C20.6235 21.9529 20.3875 21.6779 20.3162 21.2888C20.2449 20.8997 20.3681 20.5589 20.5509 20.2457C20.7225 19.9518 20.9867 19.6169 21.296 19.225L21.3179 19.1972L21.8517 18.5206Z"/>
</svg>
