<svg width="25" height="24" viewBox="0 0 25 24" fill="none" xmlns="http://www.w3.org/2000/svg">
<path d="M13.9944 4.74364H14.4944V4.7224L14.4926 4.70124L13.9944 4.74364ZM13.9944 4.74364L14.4926 4.70124L14.4919 4.69385L13.9944 4.74364ZM13.9944 4.74364L13.4944 4.74366V4.76859L13.4969 4.79341L13.9944 4.74364ZM18.515 6.43563L18.1614 6.78918L18.1671 6.79488L18.173 6.80039L18.515 6.43563ZM18.515 6.43563L18.8685 6.08208L18.8628 6.07638L18.8569 6.07087L18.515 6.43563ZM18.5999 8.13778L18.2129 7.82114L18.2094 7.82543L18.5999 8.13778ZM18.5999 8.13778L18.9869 8.45443L18.9903 8.45014L18.5999 8.13778ZM16.0623 18.3995L16.3789 18.0125L16.36 17.997L16.3396 17.9835L16.0623 18.3995ZM16.0623 18.3995L15.7457 18.7865L15.7646 18.8019L15.7849 18.8155L16.0623 18.3995ZM5.80019 15.8622L5.4239 15.533L5.41845 15.5392L5.41321 15.5456L5.80019 15.8622ZM5.80019 15.8622L6.17649 16.1915L6.18194 16.1853L6.18718 16.1789L5.80019 15.8622ZM5.8003 8.13753L5.4003 8.43753L5.40663 8.44597L5.41332 8.45414L5.8003 8.13753ZM5.8003 8.13753L6.20029 7.83752L6.19396 7.82908L6.18727 7.8209L5.8003 8.13753ZM10.4057 4.74351L9.91249 4.66131L9.9098 4.67747L9.90817 4.69376L10.4057 4.74351ZM10.4057 4.74351L10.8989 4.8257L10.9016 4.80955L10.9032 4.79325L10.4057 4.74351ZM14.5772 5.33539C14.5739 5.32728 14.5613 5.29012 14.5449 5.1751C14.5289 5.06319 14.5139 4.91379 14.4919 4.69385L13.4969 4.79341C13.518 5.00457 13.5353 5.17855 13.5549 5.31607C13.574 5.45049 13.6001 5.58888 13.6526 5.71632L14.5772 5.33539ZM15.2317 5.6065C14.9761 5.71294 14.6827 5.59139 14.5772 5.33539L13.6526 5.71632C13.969 6.48434 14.8493 6.84898 15.6162 6.52965L15.2317 5.6065ZM15.7456 5.21322C15.5746 5.35318 15.4583 5.44815 15.3679 5.51602C15.275 5.58577 15.2398 5.60313 15.2317 5.6065L15.6162 6.52965C15.7435 6.47666 15.8597 6.39726 15.9683 6.31574C16.0794 6.23235 16.2146 6.12156 16.3789 5.98717L15.7456 5.21322ZM16.1824 4.89394C16.0394 4.96969 15.9049 5.08288 15.7456 5.21322L16.3789 5.98717C16.5745 5.82712 16.6174 5.79513 16.6505 5.77761L16.1824 4.89394ZM17.7151 4.97039C17.2569 4.66569 16.6687 4.63635 16.1824 4.89394L16.6505 5.77761C16.8126 5.69175 17.0087 5.70153 17.1614 5.80309L17.7151 4.97039ZM18.118 5.33154C17.9724 5.186 17.8499 5.05999 17.7151 4.97039L17.1614 5.80309C17.1926 5.82381 17.2322 5.85993 17.4109 6.03865L18.118 5.33154ZM18.8685 6.08208L18.118 5.33154L17.4109 6.03865L18.1614 6.78918L18.8685 6.08208ZM19.2296 6.48488C19.1401 6.35015 19.0141 6.22761 18.8685 6.08208L18.1614 6.78918C18.3401 6.96788 18.3762 7.00746 18.397 7.03861L19.2296 6.48488ZM19.3061 8.01766C19.5637 7.53139 19.5344 6.94311 19.2296 6.48488L18.397 7.03861C18.4986 7.19135 18.5083 7.38745 18.4224 7.54954L19.3061 8.01766ZM18.9869 8.45443C19.1173 8.29516 19.2304 8.16064 19.3061 8.01766L18.4224 7.54954C18.4049 7.5826 18.3729 7.62554 18.2129 7.82114L18.9869 8.45443ZM18.5936 8.96828C18.597 8.96018 18.6143 8.92499 18.6841 8.83209C18.7519 8.7417 18.847 8.62548 18.9869 8.45443L18.2129 7.82114C18.0785 7.98537 17.9677 8.12064 17.8843 8.23172C17.8028 8.3403 17.7234 8.45659 17.6704 8.58383L18.5936 8.96828ZM18.8647 9.62281C18.6087 9.51734 18.4871 9.22389 18.5936 8.96828L17.6704 8.58383C17.3511 9.35066 17.7157 10.231 18.4838 10.5474L18.8647 9.62281ZM19.5062 9.7081C19.2862 9.6861 19.1369 9.67107 19.025 9.65513C18.91 9.63875 18.8728 9.62615 18.8647 9.62281L18.4838 10.5474C18.6112 10.5999 18.7496 10.626 18.884 10.6451C19.0215 10.6647 19.1955 10.682 19.4067 10.7031L19.5062 9.7081ZM20.0408 9.79118C19.8861 9.74364 19.711 9.72858 19.5062 9.7081L19.4067 10.7031C19.6582 10.7283 19.7112 10.736 19.7469 10.747L20.0408 9.79118ZM21.0705 10.929C20.962 10.3896 20.5668 9.95288 20.0408 9.79118L19.7469 10.747C19.9223 10.8009 20.054 10.9465 20.0902 11.1263L21.0705 10.929ZM21.1 11.4693C21.1 11.2634 21.1025 11.0877 21.0705 10.929L20.0902 11.1263C20.0976 11.163 20.1 11.2165 20.1 11.4693H21.1ZM21.1 12.5307V11.4693H20.1V12.5307H21.1ZM21.0706 13.0708C21.1025 12.9122 21.1 12.7365 21.1 12.5307H20.1C20.1 12.7834 20.0976 12.8369 20.0902 12.8736L21.0706 13.0708ZM20.0407 14.2088C20.5667 14.0471 20.962 13.6103 21.0706 13.0708L20.0902 12.8736C20.054 13.0534 19.9223 13.199 19.7469 13.2529L20.0407 14.2088ZM19.5062 14.2918C19.711 14.2714 19.8861 14.2563 20.0407 14.2088L19.7469 13.2529C19.7112 13.2639 19.6582 13.2717 19.4067 13.2968L19.5062 14.2918ZM18.865 14.3771C18.8731 14.3738 18.9102 14.3612 19.0252 14.3448C19.1371 14.3289 19.2864 14.3138 19.5062 14.2918L19.4067 13.2968C19.1956 13.3179 19.0217 13.3352 18.8843 13.3548C18.7499 13.3739 18.6116 13.4 18.4842 13.4524L18.865 14.3771ZM18.5938 15.0317C18.4873 14.7761 18.6089 14.4825 18.865 14.3771L18.4842 13.4524C17.716 13.7688 17.3512 14.6493 17.6707 15.4163L18.5938 15.0317ZM18.9869 15.5453C18.847 15.3744 18.7521 15.2582 18.6843 15.1678C18.6146 15.075 18.5972 15.0398 18.5938 15.0317L17.6707 15.4163C17.7237 15.5434 17.8031 15.6597 17.8846 15.7682C17.9679 15.8792 18.0787 16.0144 18.213 16.1786L18.9869 15.5453ZM19.3061 15.9819C19.2303 15.839 19.1172 15.7046 18.9869 15.5453L18.213 16.1786C18.373 16.3741 18.4049 16.4171 18.4225 16.4501L19.3061 15.9819ZM19.2296 17.5149C19.5344 17.0566 19.5638 16.4682 19.3061 15.9819L18.4225 16.4501C18.5084 16.6122 18.4986 16.8083 18.397 16.9611L19.2296 17.5149ZM18.8686 17.9175C19.0141 17.7721 19.14 17.6496 19.2296 17.5149L18.397 16.9611C18.3763 16.9922 18.3402 17.0318 18.1615 17.2104L18.8686 17.9175ZM18.118 18.6681L18.8686 17.9175L18.1615 17.2104L17.4109 17.961L18.118 18.6681ZM17.7152 19.0293C17.8499 18.9397 17.9725 18.8137 18.118 18.6681L17.4109 17.961C17.2322 18.1398 17.1926 18.1759 17.1615 18.1966L17.7152 19.0293ZM16.1824 19.1057C16.6687 19.3633 17.257 19.334 17.7152 19.0293L17.1615 18.1966C17.0087 18.2981 16.8126 18.3079 16.6505 18.2221L16.1824 19.1057ZM15.7457 18.7865C15.905 18.9168 16.0394 19.03 16.1824 19.1057L16.6505 18.2221C16.6175 18.2046 16.5745 18.1726 16.3789 18.0125L15.7457 18.7865ZM15.2318 18.3932C15.2398 18.3965 15.275 18.4139 15.3679 18.4837C15.4584 18.5515 15.5746 18.6465 15.7457 18.7865L16.3789 18.0125C16.2147 17.8781 16.0794 17.7673 15.9683 17.6839C15.8597 17.6024 15.7434 17.523 15.6162 17.47L15.2318 18.3932ZM14.5772 18.6643C14.6827 18.4083 14.9761 18.2867 15.2318 18.3932L15.6162 17.47C14.8494 17.1507 13.9691 17.5153 13.6526 18.2834L14.5772 18.6643ZM14.4919 19.3059C14.5139 19.086 14.529 18.9366 14.5449 18.8246C14.5613 18.7096 14.5739 18.6724 14.5772 18.6643L13.6526 18.2834C13.6001 18.4108 13.574 18.5492 13.5549 18.6837C13.5353 18.8212 13.518 18.9952 13.4969 19.2064L14.4919 19.3059ZM14.4088 19.8409C14.4564 19.6862 14.4714 19.5109 14.4919 19.3059L13.4969 19.2064C13.4717 19.4581 13.464 19.5112 13.4529 19.547L14.4088 19.8409ZM13.2711 20.8705C13.8104 20.7619 14.2471 20.3668 14.4088 19.8409L13.4529 19.547C13.399 19.7223 13.2535 19.854 13.0737 19.8902L13.2711 20.8705ZM12.7306 20.9C12.9365 20.9 13.1124 20.9025 13.2711 20.8705L13.0737 19.8902C13.037 19.8976 12.9835 19.9 12.7306 19.9V20.9ZM11.6693 20.9H12.7306V19.9H11.6693V20.9ZM11.1291 20.8705C11.2877 20.9025 11.4635 20.9 11.6693 20.9V19.9C11.4166 19.9 11.3631 19.8976 11.3264 19.8902L11.1291 20.8705ZM9.99125 19.8408C10.1529 20.3668 10.5896 20.762 11.1291 20.8705L11.3264 19.8902C11.1466 19.854 11.001 19.7223 10.9471 19.5469L9.99125 19.8408ZM9.90816 19.3061C9.92864 19.511 9.94369 19.6861 9.99125 19.8408L10.9471 19.5469C10.9361 19.5112 10.9283 19.4582 10.9032 19.2066L9.90816 19.3061ZM9.82286 18.6646C9.8262 18.6728 9.83881 18.7099 9.85519 18.8249C9.87112 18.9369 9.88616 19.0862 9.90816 19.3061L10.9032 19.2066C10.8821 18.9955 10.8648 18.8215 10.8452 18.684C10.826 18.5495 10.8 18.4112 10.7474 18.2837L9.82286 18.6646ZM9.16835 18.3935C9.42395 18.2871 9.71738 18.4086 9.82286 18.6646L10.7474 18.2837C10.431 17.5157 9.55073 17.1511 8.78393 17.4704L9.16835 18.3935ZM8.65441 18.7869C8.82549 18.6469 8.94173 18.5519 9.03214 18.484C9.12506 18.4143 9.16025 18.3969 9.16835 18.3935L8.78393 17.4704C8.65668 17.5234 8.54036 17.6028 8.43178 17.6843C8.32068 17.7677 8.18543 17.8785 8.02117 18.0129L8.65441 18.7869ZM8.21758 19.1062C8.36058 19.0304 8.49509 18.9172 8.65441 18.7869L8.02117 18.0129C7.82552 18.173 7.78255 18.205 7.74948 18.2225L8.21758 19.1062ZM6.68488 19.0297C7.14309 19.3344 7.73133 19.3637 8.21758 19.1062L7.74948 18.2225C7.5874 18.3083 7.39132 18.2986 7.23858 18.197L6.68488 19.0297ZM6.282 18.6685C6.42755 18.8141 6.55012 18.9401 6.68488 19.0297L7.23858 18.197C7.20742 18.1763 7.16785 18.1402 6.98911 17.9614L6.282 18.6685ZM5.53153 17.9181L6.282 18.6685L6.98911 17.9614L6.23863 17.211L5.53153 17.9181ZM5.17031 17.5151C5.25992 17.6499 5.38596 17.7725 5.53153 17.9181L6.23863 17.211C6.05988 17.0322 6.02376 16.9926 6.00304 16.9615L5.17031 17.5151ZM5.09387 15.9825C4.83632 16.4687 4.86565 17.057 5.17031 17.5151L6.00304 16.9615C5.90148 16.8087 5.89171 16.6127 5.97756 16.4506L5.09387 15.9825ZM5.41321 15.5456C5.28285 15.705 5.16963 15.8395 5.09387 15.9825L5.97756 16.4506C5.99508 16.4175 6.02709 16.3745 6.18718 16.1789L5.41321 15.5456ZM5.80654 15.0316C5.80317 15.0397 5.78581 15.0749 5.71605 15.1679C5.64818 15.2583 5.55319 15.3745 5.41321 15.5456L6.18718 16.1789C6.32157 16.0146 6.43238 15.8793 6.51578 15.7682C6.5973 15.6596 6.67672 15.5433 6.72971 15.4161L5.80654 15.0316ZM5.53544 14.3771C5.79143 14.4825 5.91297 14.7761 5.80654 15.0316L6.72971 15.4161C7.049 14.6493 6.68438 13.769 5.9164 13.4526L5.53544 14.3771ZM4.8939 14.2918C5.11386 14.3138 5.26322 14.3289 5.37514 14.3448C5.49017 14.3612 5.52733 14.3738 5.53544 14.3771L5.9164 13.4526C5.78895 13.4 5.65055 13.3739 5.51611 13.3548C5.37858 13.3352 5.20459 13.3179 4.9934 13.2968L4.8939 14.2918ZM4.35923 14.2087C4.51391 14.2562 4.68908 14.2714 4.8939 14.2918L4.9934 13.2968C4.74188 13.2717 4.68887 13.2639 4.6531 13.2529L4.35923 14.2087ZM3.32951 13.0709C3.43807 13.6104 3.83328 14.0471 4.35923 14.2087L4.6531 13.2529C4.47778 13.199 4.34604 13.0534 4.30986 12.8736L3.32951 13.0709ZM3.30003 12.5306C3.30003 12.7365 3.29758 12.9123 3.32951 13.0709L4.30986 12.8736C4.30247 12.8369 4.30003 12.7834 4.30003 12.5306H3.30003ZM3.30003 11.4694V12.5306H4.30003V11.4694H3.30003ZM3.32953 10.9289C3.29758 11.0876 3.30003 11.2635 3.30003 11.4694H4.30003C4.30003 11.2165 4.30247 11.163 4.30986 11.1263L3.32953 10.9289ZM4.35915 9.79122C3.83326 9.95293 3.43811 10.3896 3.32953 10.9289L4.30986 11.1263C4.34606 10.9465 4.47777 10.8009 4.65307 10.747L4.35915 9.79122ZM4.89398 9.70809C4.68909 9.72858 4.51388 9.74364 4.35915 9.79122L4.65307 10.747C4.68885 10.736 4.74188 10.7283 4.99348 10.7031L4.89398 9.70809ZM5.53572 9.62275C5.52761 9.62609 5.49043 9.63871 5.37537 9.6551C5.26341 9.67104 5.114 9.68609 4.89398 9.70809L4.99348 10.7031C5.20473 10.682 5.37877 10.6647 5.51635 10.6451C5.65083 10.6259 5.78927 10.5998 5.91676 10.5473L5.53572 9.62275ZM5.80679 8.96831C5.91319 9.22389 5.79166 9.51726 5.53572 9.62275L5.91676 10.5473C6.68461 10.2308 7.04917 9.35071 6.72999 8.58399L5.80679 8.96831ZM5.41332 8.45414C5.55335 8.6253 5.64837 8.7416 5.71627 8.83205C5.78606 8.925 5.80342 8.96021 5.80679 8.96831L6.72999 8.58399C6.677 8.45669 6.59756 8.34032 6.51601 8.23169C6.43257 8.12055 6.32172 7.98523 6.18727 7.8209L5.41332 8.45414ZM5.09385 8.01708C5.16962 8.16016 5.2829 8.29474 5.41332 8.45414L6.18727 7.8209C6.02711 7.62515 5.9951 7.58216 5.97757 7.54907L5.09385 8.01708ZM5.17028 6.48463C4.86571 6.94277 4.83638 7.5309 5.09385 8.01708L5.97757 7.54907C5.89175 7.38701 5.90153 7.19097 6.00305 7.03825L5.17028 6.48463ZM5.53163 6.08155C5.38601 6.22717 5.25992 6.3498 5.17028 6.48463L6.00305 7.03825C6.02378 7.00707 6.05991 6.96748 6.23874 6.78865L5.53163 6.08155ZM6.28203 5.33115L5.53163 6.08155L6.23874 6.78865L6.98914 6.03825L6.28203 5.33115ZM6.68492 4.96996C6.55016 5.05956 6.42759 5.18559 6.28203 5.33115L6.98914 6.03825C7.16788 5.85951 7.20745 5.8234 7.23862 5.80267L6.68492 4.96996ZM8.21761 4.89351C7.73136 4.63594 7.14312 4.66528 6.68492 4.96996L7.23862 5.80267C7.39135 5.70112 7.58743 5.69134 7.74952 5.77719L8.21761 4.89351ZM8.6545 5.21288C8.49515 5.0825 8.36062 4.96927 8.21761 4.89351L7.74952 5.77719C7.78258 5.79471 7.82557 5.82672 8.02126 5.98683L8.6545 5.21288ZM9.16832 5.60611C9.16024 5.60274 9.12505 5.58538 9.03216 5.51564C8.94177 5.44778 8.82554 5.35282 8.6545 5.21288L8.02126 5.98683C8.18548 6.1212 8.3207 6.23196 8.43177 6.31535C8.54031 6.39684 8.65658 6.47623 8.78378 6.52922L9.16832 5.60611ZM9.82292 5.33497C9.71746 5.59103 9.42396 5.7126 9.16832 5.60611L8.78378 6.52922C9.55068 6.84869 10.4312 6.48398 10.7476 5.71579L9.82292 5.33497ZM9.90817 4.69376C9.88618 4.9136 9.87115 5.06288 9.85522 5.17475C9.83886 5.28972 9.82626 5.32686 9.82292 5.33497L10.7476 5.71579C10.8 5.58839 10.8261 5.45006 10.8452 5.3157C10.8648 5.17823 10.8821 5.00432 10.9032 4.79325L9.90817 4.69376ZM9.9912 4.15937C9.94369 4.31398 9.92864 4.48905 9.90817 4.69376L10.9032 4.79325C10.9283 4.54187 10.9361 4.48889 10.9471 4.45313L9.9912 4.15937ZM11.1292 3.12947C10.5897 3.238 10.1529 3.63329 9.9912 4.15937L10.9471 4.45313C11.001 4.27777 11.1466 4.14601 11.3264 4.10983L11.1292 3.12947ZM11.6692 3.10002C11.4635 3.10002 11.2878 3.09757 11.1292 3.12947L11.3264 4.10983C11.3631 4.10246 11.4166 4.10002 11.6692 4.10002V3.10002ZM12.7307 3.10002H11.6692V4.10002H12.7307V3.10002ZM13.271 3.1295C13.1123 3.09757 12.9365 3.10002 12.7307 3.10002V4.10002C12.9835 4.10002 13.037 4.10246 13.0737 4.10984L13.271 3.1295ZM14.4088 4.15923C14.2471 3.63327 13.8104 3.23806 13.271 3.1295L13.0737 4.10984C13.2535 4.14603 13.3991 4.27777 13.453 4.45309L14.4088 4.15923ZM14.4919 4.69385C14.4714 4.48906 14.4564 4.3139 14.4088 4.15923L13.453 4.45309C13.464 4.48885 13.4717 4.54191 13.4969 4.79341L14.4919 4.69385ZM15.06 12C15.06 13.5795 13.7796 14.86 12.2 14.86V15.86C14.3319 15.86 16.06 14.1318 16.06 12H15.06ZM12.2 9.13998C13.7796 9.13998 15.06 10.4204 15.06 12H16.06C16.06 9.86816 14.3319 8.13998 12.2 8.13998V9.13998ZM9.34004 12C9.34004 10.4204 10.6205 9.13998 12.2 9.13998V8.13998C10.0682 8.13998 8.34004 9.86816 8.34004 12H9.34004ZM12.2 14.86C10.6205 14.86 9.34004 13.5795 9.34004 12H8.34004C8.34004 14.1318 10.0682 15.86 12.2 15.86V14.86Z" fill="#4998EE"/>
</svg>
